<?xml version="1.0" encoding="UTF-8"?><svg id="a" xmlns="http://www.w3.org/2000/svg" width="844.59" height="344.02" viewBox="0 0 844.59 344.02"><path d="M501.8,280l-.8-127.6-60.8,102.4h-41.6l-60.8-98v123.2h-86V0h77.6l91.2,149.2L509.4,0h77.6l.8,280h-86Z" fill="#f8f9fa"/><path d="M668.2,73.2h-82V0h258.4v73.2h-82v206.8h-94.4V73.2Z" fill="#f8f9fa"/><path d="M221.2,231.2h-106.4l-18.8,48.8H0L122.4,0h92.8l122.4,280h-97.6l-18.8-48.8ZM195.2,163.2l-27.2-70.4-27.2,70.4h54.4Z" fill="#e82a2a"/><path d="M.43,343.41l12.59-34.92h5.12l12.76,34.92h-4.66l-7.36-20.72c-.45-1.28-.97-2.88-1.57-4.79s-1.32-4.36-2.18-7.32h.84c-.84,3-1.56,5.47-2.18,7.42s-1.12,3.51-1.52,4.7l-7.15,20.72H.43ZM6.76,333.66v-3.89h17.81v3.89H6.76Z" fill="#f8f9fa"/><path d="M40.72,308.49v34.92h-4.42v-34.92h4.42ZM47.12,343.41h-8.38v-3.94h8.1c2.82,0,5.16-.54,7.02-1.63s3.24-2.64,4.15-4.68,1.37-4.46,1.37-7.29-.45-5.2-1.36-7.21-2.26-3.55-4.05-4.63-4.03-1.62-6.72-1.62h-8.71v-3.94h9.01c3.38,0,6.27.7,8.67,2.09s4.24,3.39,5.52,5.99,1.92,5.71,1.92,9.32-.64,6.77-1.93,9.39-3.17,4.63-5.63,6.04-5.46,2.11-8.98,2.11Z" fill="#f8f9fa"/><path d="M78.87,343.41l-12.76-34.92h4.66l7.33,20.72c.42,1.19.94,2.77,1.57,4.76s1.36,4.43,2.2,7.34h-.86c.84-2.98,1.57-5.45,2.19-7.39s1.13-3.51,1.54-4.7l7.15-20.72h4.7l-12.62,34.92h-5.1Z" fill="#f8f9fa"/><path d="M95.75,343.41l12.59-34.92h5.12l12.76,34.92h-4.66l-7.36-20.72c-.45-1.28-.97-2.88-1.57-4.79s-1.32-4.36-2.18-7.32h.84c-.84,3-1.56,5.47-2.18,7.42s-1.12,3.51-1.52,4.7l-7.15,20.72h-4.7ZM102.08,333.66v-3.89h17.81v3.89h-17.81Z" fill="#f8f9fa"/><path d="M131.62,343.41v-34.92h5.21l14.11,22.34c.37.58.82,1.32,1.35,2.23s1.1,1.93,1.71,3.07,1.21,2.36,1.8,3.66h-.63c-.14-1.34-.24-2.63-.3-3.86s-.1-2.36-.12-3.39-.02-1.91-.02-2.62v-21.42h4.42v34.92h-5.26l-12.57-19.88c-.57-.92-1.15-1.87-1.73-2.85s-1.25-2.13-1.99-3.47-1.67-2.99-2.77-4.96h.81c.08,1.73.15,3.34.21,4.8s.11,2.75.15,3.84.06,1.95.06,2.58v19.92h-4.45Z" fill="#f8f9fa"/><path d="M181.57,343.88c-2.96,0-5.61-.72-7.93-2.17s-4.14-3.51-5.47-6.19-1.99-5.86-1.99-9.55.66-6.89,1.99-9.57,3.15-4.75,5.47-6.2,4.96-2.18,7.93-2.18c1.75,0,3.41.26,4.97.77s2.96,1.27,4.2,2.26,2.28,2.2,3.11,3.61,1.4,3.02,1.71,4.82h-4.42c-.25-1.2-.67-2.26-1.27-3.16s-1.33-1.67-2.19-2.3-1.81-1.09-2.85-1.41-2.13-.47-3.26-.47c-2.08,0-3.96.53-5.63,1.59s-3,2.62-3.98,4.68-1.47,4.57-1.47,7.56.49,5.48,1.48,7.54,2.32,3.61,3.99,4.66,3.55,1.58,5.61,1.58c1.13,0,2.22-.16,3.26-.48s1.99-.79,2.85-1.41,1.59-1.38,2.19-2.3,1.02-1.96,1.27-3.15h4.42c-.29,1.78-.86,3.38-1.69,4.78s-1.87,2.61-3.11,3.61-2.64,1.76-4.2,2.29-3.22.79-4.99.79Z" fill="#f8f9fa"/><path d="M202.36,343.41v-34.92h21.14v3.94h-16.71v11.39h15.57v3.94h-15.57v11.72h16.92v3.94h-21.35Z" fill="#f8f9fa"/><path d="M244.42,343.41v-34.92h6.28l8.54,22.03c.2.52.43,1.16.69,1.93s.53,1.61.81,2.52.56,1.81.83,2.71.5,1.73.7,2.5h-.98c.22-.72.46-1.52.72-2.4s.54-1.78.83-2.7.56-1.77.83-2.57.5-1.46.7-1.99l8.43-22.03h6.31v34.92h-4.35v-19.95c0-.72,0-1.54.01-2.46s.02-1.89.05-2.91.05-2.05.07-3.09.04-2.06.06-3.05h.37c-.33,1.08-.67,2.18-1.04,3.29s-.72,2.2-1.07,3.23-.68,1.99-.99,2.85-.57,1.57-.79,2.13l-7.75,19.95h-3.84l-7.87-19.95c-.22-.55-.47-1.24-.77-2.07s-.62-1.77-.97-2.79-.71-2.1-1.08-3.23-.75-2.27-1.14-3.41h.42c.03.88.06,1.82.08,2.84s.04,2.04.06,3.08.03,2.04.05,3,.02,1.82.02,2.59v19.95h-4.21Z" fill="#f8f9fa"/><path d="M284.5,343.41l12.59-34.92h5.12l12.76,34.92h-4.66l-7.36-20.72c-.45-1.28-.97-2.88-1.57-4.79s-1.32-4.36-2.18-7.32h.84c-.84,3-1.56,5.47-2.18,7.42s-1.12,3.51-1.52,4.7l-7.15,20.72h-4.7ZM290.83,333.66v-3.89h17.81v3.89h-17.81Z" fill="#f8f9fa"/><path d="M332.78,343.88c-2.96,0-5.61-.72-7.93-2.17s-4.14-3.51-5.47-6.19-1.99-5.86-1.99-9.55.66-6.89,1.99-9.57,3.15-4.75,5.47-6.2,4.96-2.18,7.93-2.18c1.75,0,3.41.26,4.97.77s2.96,1.27,4.2,2.26,2.28,2.2,3.11,3.61,1.4,3.02,1.71,4.82h-4.42c-.25-1.2-.67-2.26-1.27-3.16s-1.33-1.67-2.19-2.3-1.81-1.09-2.85-1.41-2.13-.47-3.26-.47c-2.08,0-3.96.53-5.63,1.59s-3,2.62-3.98,4.68-1.47,4.57-1.47,7.56.49,5.48,1.48,7.54,2.32,3.61,3.99,4.66,3.55,1.58,5.61,1.58c1.13,0,2.22-.16,3.26-.48s1.99-.79,2.85-1.41,1.59-1.38,2.19-2.3,1.02-1.96,1.27-3.15h4.42c-.29,1.78-.86,3.38-1.69,4.78s-1.87,2.61-3.11,3.61-2.64,1.76-4.2,2.29-3.22.79-4.99.79Z" fill="#f8f9fa"/><path d="M353.57,343.41v-34.92h4.42v15.09h18.2v-15.09h4.42v34.92h-4.42v-15.89h-18.2v15.89h-4.42Z" fill="#f8f9fa"/><path d="M393.42,308.49v34.92h-4.42v-34.92h4.42Z" fill="#f8f9fa"/><path d="M401.8,343.41v-34.92h5.21l14.11,22.34c.37.58.82,1.32,1.35,2.23s1.1,1.93,1.71,3.07,1.21,2.36,1.8,3.66h-.63c-.14-1.34-.24-2.63-.3-3.86s-.1-2.36-.12-3.39-.02-1.91-.02-2.62v-21.42h4.42v34.92h-5.26l-12.57-19.88c-.57-.92-1.15-1.87-1.73-2.85s-1.25-2.13-1.99-3.47-1.67-2.99-2.77-4.96h.81c.08,1.73.15,3.34.21,4.8s.11,2.75.15,3.84.06,1.95.06,2.58v19.92h-4.45Z" fill="#f8f9fa"/><path d="M437.71,343.41v-34.92h21.14v3.94h-16.71v11.39h15.57v3.94h-15.57v11.72h16.92v3.94h-21.35Z" fill="#f8f9fa"/><path d="M477.86,312.43v-3.94h26.21v3.94h-10.87v30.98h-4.42v-30.98h-10.92Z" fill="#f8f9fa"/><path d="M510.55,343.41v-34.92h21.14v3.94h-16.71v11.39h15.57v3.94h-15.57v11.72h16.92v3.94h-21.35Z" fill="#f8f9fa"/><path d="M553.24,343.88c-2.96,0-5.61-.72-7.93-2.17s-4.14-3.51-5.47-6.19-1.99-5.86-1.99-9.55.66-6.89,1.99-9.57,3.15-4.75,5.47-6.2,4.96-2.18,7.93-2.18c1.75,0,3.41.26,4.97.77s2.96,1.27,4.2,2.26,2.28,2.2,3.11,3.61,1.4,3.02,1.71,4.82h-4.42c-.25-1.2-.67-2.26-1.27-3.16s-1.33-1.67-2.19-2.3-1.81-1.09-2.85-1.41-2.13-.47-3.26-.47c-2.08,0-3.96.53-5.63,1.59s-3,2.62-3.98,4.68-1.47,4.57-1.47,7.56.49,5.48,1.48,7.54,2.32,3.61,3.99,4.66,3.55,1.58,5.61,1.58c1.13,0,2.22-.16,3.26-.48s1.99-.79,2.85-1.41,1.59-1.38,2.19-2.3,1.02-1.96,1.27-3.15h4.42c-.29,1.78-.86,3.38-1.69,4.78s-1.87,2.61-3.11,3.61-2.64,1.76-4.2,2.29-3.22.79-4.99.79Z" fill="#f8f9fa"/><path d="M574.02,343.41v-34.92h4.42v15.09h18.2v-15.09h4.42v34.92h-4.42v-15.89h-18.2v15.89h-4.42Z" fill="#f8f9fa"/><path d="M609.45,343.41v-34.92h5.21l14.11,22.34c.37.58.82,1.32,1.35,2.23s1.1,1.93,1.71,3.07,1.21,2.36,1.8,3.66h-.63c-.14-1.34-.24-2.63-.3-3.86s-.1-2.36-.12-3.39-.02-1.91-.02-2.62v-21.42h4.42v34.92h-5.26l-12.57-19.88c-.57-.92-1.15-1.87-1.73-2.85s-1.25-2.13-1.99-3.47-1.67-2.99-2.77-4.96h.81c.08,1.73.15,3.34.21,4.8s.11,2.75.15,3.84.06,1.95.06,2.58v19.92h-4.45Z" fill="#f8f9fa"/><path d="M659.43,343.88c-2.96,0-5.61-.72-7.93-2.17s-4.15-3.51-5.48-6.19-2-5.86-2-9.55.67-6.89,2-9.57,3.16-4.75,5.48-6.2,4.96-2.18,7.93-2.18,5.6.73,7.91,2.18,4.13,3.52,5.46,6.2,1.99,5.87,1.99,9.57-.66,6.87-1.99,9.55-3.15,4.74-5.46,6.19-4.95,2.17-7.91,2.17ZM659.43,339.76c2.06,0,3.93-.53,5.6-1.58s2.99-2.61,3.98-4.66,1.48-4.57,1.48-7.54-.49-5.53-1.48-7.58-2.31-3.61-3.98-4.66-3.53-1.58-5.6-1.58-3.96.53-5.63,1.59-3.01,2.62-3.99,4.68-1.48,4.57-1.48,7.56.49,5.48,1.48,7.52,2.32,3.6,3.99,4.66,3.55,1.59,5.63,1.59Z" fill="#f8f9fa"/><path d="M681.82,343.41v-34.92h4.42v30.98h16.06v3.94h-20.48Z" fill="#f8f9fa"/><path d="M721.48,343.88c-2.96,0-5.61-.72-7.93-2.17s-4.15-3.51-5.48-6.19-2-5.86-2-9.55.67-6.89,2-9.57,3.16-4.75,5.48-6.2,4.96-2.18,7.93-2.18,5.6.73,7.91,2.18,4.13,3.52,5.46,6.2,1.99,5.87,1.99,9.57-.66,6.87-1.99,9.55-3.15,4.74-5.46,6.19-4.95,2.17-7.91,2.17ZM721.48,339.76c2.06,0,3.93-.53,5.6-1.58s2.99-2.61,3.98-4.66,1.48-4.57,1.48-7.54-.49-5.53-1.48-7.58-2.31-3.61-3.98-4.66-3.53-1.58-5.6-1.58-3.96.53-5.63,1.59-3.01,2.62-3.99,4.68-1.48,4.57-1.48,7.56.49,5.48,1.48,7.52,2.32,3.6,3.99,4.66,3.55,1.59,5.63,1.59Z" fill="#f8f9fa"/><path d="M758.05,343.88c-3.09,0-5.8-.73-8.12-2.18s-4.14-3.52-5.45-6.2-1.96-5.86-1.96-9.53.65-6.89,1.96-9.57,3.1-4.75,5.4-6.2,4.93-2.18,7.89-2.18c1.83,0,3.54.27,5.13.82s3.01,1.33,4.27,2.34,2.3,2.22,3.13,3.62,1.4,2.94,1.71,4.63h-4.56c-.36-1.12-.83-2.13-1.42-3.02s-1.29-1.66-2.11-2.3-1.73-1.13-2.76-1.46-2.15-.5-3.38-.5c-2.03,0-3.88.53-5.54,1.58s-2.98,2.61-3.96,4.66-1.47,4.58-1.47,7.58.49,5.48,1.48,7.52,2.32,3.6,4.02,4.66,3.6,1.59,5.73,1.59c1.96,0,3.68-.42,5.17-1.25s2.65-2.02,3.48-3.56,1.25-3.36,1.25-5.45l1.33.26h-10.31v-3.89h13.31v3.82c0,2.89-.61,5.4-1.84,7.52s-2.91,3.77-5.04,4.93-4.58,1.75-7.34,1.75Z" fill="#f8f9fa"/><path d="M783.86,308.49v34.92h-4.42v-34.92h4.42Z" fill="#f8f9fa"/><path d="M792.24,343.41v-34.92h21.14v3.94h-16.71v11.39h15.57v3.94h-15.57v11.72h16.92v3.94h-21.35Z" fill="#f8f9fa"/><path d="M832,344.02c-2.5,0-4.67-.41-6.51-1.22s-3.28-1.95-4.32-3.41-1.63-3.17-1.77-5.12h4.54c.12,1.31.57,2.39,1.33,3.25s1.73,1.48,2.92,1.9,2.46.62,3.81.62c1.57,0,2.98-.26,4.22-.77s2.24-1.24,2.97-2.18,1.09-2.02,1.09-3.26c0-1.12-.31-2.04-.94-2.74s-1.46-1.28-2.5-1.73-2.18-.85-3.42-1.2l-4.19-1.2c-2.79-.8-4.97-1.94-6.52-3.42s-2.33-3.38-2.33-5.7c0-1.97.53-3.69,1.58-5.17s2.48-2.62,4.28-3.43,3.82-1.22,6.05-1.22,4.3.41,6.05,1.22,3.14,1.92,4.15,3.32,1.56,2.98,1.62,4.75h-4.33c-.2-1.7-1.01-3.02-2.42-3.95s-3.15-1.39-5.21-1.39c-1.49,0-2.8.25-3.92.74s-2,1.16-2.62,2.02-.93,1.82-.93,2.92c0,1.22.38,2.2,1.13,2.94s1.64,1.32,2.68,1.73,1.97.74,2.8.97l3.47.96c.93.25,1.96.59,3.08,1.03s2.2,1.02,3.22,1.75,1.87,1.65,2.53,2.77.99,2.49.99,4.11c0,1.91-.49,3.62-1.48,5.16s-2.42,2.74-4.29,3.63-4.15,1.34-6.82,1.34Z" fill="#f8f9fa"/></svg>