<?xml version="1.0" encoding="UTF-8"?><svg id="a" xmlns="http://www.w3.org/2000/svg" width="1019.05" height="114.93" viewBox="0 0 1019.05 114.93"><path d="M365.05,48.78L381.49.65h12.92l16.86,48.14h-10.95l-7.72-23.23c-.93-2.99-1.87-6.27-2.83-9.84-.96-3.56-1.97-7.46-3.02-11.68h2.16c-1.03,4.24-2,8.16-2.89,11.74s-1.78,6.84-2.67,9.77l-7.43,23.23h-10.89ZM375.32,37.6v-7.72h25.68v7.72h-25.68Z" fill="#f8f9fa"/><path d="M427.07.65v48.14h-9.85V.65h9.85ZM434.15,48.78h-12.47v-8.5h11.99c3.1,0,5.7-.55,7.8-1.65,2.1-1.1,3.68-2.8,4.73-5.1,1.05-2.3,1.58-5.25,1.58-8.85s-.53-6.51-1.6-8.8c-1.07-2.29-2.64-3.99-4.72-5.09-2.08-1.1-4.66-1.65-7.74-1.65h-12.28V.65h12.86c4.82,0,8.98.96,12.45,2.89,3.48,1.93,6.15,4.68,8.03,8.27,1.87,3.59,2.81,7.88,2.81,12.87s-.94,9.33-2.81,12.92c-1.87,3.6-4.56,6.36-8.06,8.29-3.5,1.93-7.69,2.89-12.58,2.89Z" fill="#f8f9fa"/><path d="M476.44,48.78L459.57.65h10.95l7.69,23.23c.93,2.93,1.86,6.15,2.81,9.68.95,3.52,1.95,7.37,3,11.55h-2.13c1.03-4.22,2-8.08,2.91-11.58.9-3.5,1.8-6.71,2.68-9.64l7.43-23.23h10.89l-16.48,48.14h-12.89Z" fill="#f8f9fa"/><path d="M503.74,48.78L520.18.65h12.92l16.86,48.14h-10.95l-7.72-23.23c-.93-2.99-1.87-6.27-2.83-9.84-.96-3.56-1.97-7.46-3.02-11.68h2.16c-1.03,4.24-2,8.16-2.89,11.74s-1.78,6.84-2.67,9.77l-7.43,23.23h-10.89ZM514.01,37.6v-7.72h25.68v7.72h-25.68Z" fill="#f8f9fa"/><path d="M555.91,48.78V.65h10.98l15.22,24.36c.78,1.25,1.56,2.61,2.36,4.07.8,1.46,1.61,3.09,2.44,4.88.83,1.79,1.65,3.8,2.47,6.04h-1c-.15-1.79-.29-3.69-.4-5.72s-.22-3.96-.31-5.81c-.09-1.85-.13-3.42-.13-4.72V.65h10.08v48.14h-11.02l-13.83-22.1c-1.01-1.66-1.95-3.27-2.81-4.83-.86-1.56-1.76-3.28-2.7-5.17-.94-1.88-2.05-4.14-3.34-6.77h1.26c.13,2.33.26,4.56.39,6.69.13,2.13.23,4.07.31,5.8.08,1.73.11,3.15.11,4.25v22.13h-10.08Z" fill="#f8f9fa"/><path d="M627.37,49.43c-4.26,0-8.08-.97-11.45-2.91-3.37-1.94-6.03-4.75-7.98-8.43-1.95-3.68-2.92-8.13-2.92-13.34s.98-9.7,2.94-13.39c1.96-3.69,4.63-6.51,8.01-8.45s7.18-2.91,11.4-2.91c2.74,0,5.28.38,7.64,1.15,2.36.76,4.45,1.88,6.28,3.34,1.83,1.46,3.33,3.26,4.49,5.38,1.16,2.12,1.93,4.54,2.29,7.25h-9.98c-.22-1.33-.63-2.51-1.24-3.54-.61-1.02-1.38-1.9-2.29-2.62-.92-.72-1.97-1.27-3.15-1.65-1.18-.38-2.47-.57-3.84-.57-2.5,0-4.69.62-6.57,1.87s-3.35,3.06-4.39,5.44c-1.04,2.38-1.57,5.27-1.57,8.67s.53,6.39,1.58,8.75c1.05,2.37,2.52,4.16,4.39,5.36,1.87,1.21,4.05,1.81,6.53,1.81,1.38,0,2.65-.19,3.83-.57,1.17-.38,2.23-.93,3.17-1.65.94-.72,1.71-1.6,2.33-2.63.61-1.03,1.04-2.21,1.28-3.52h9.98c-.26,2.24-.92,4.38-1.99,6.43-1.07,2.05-2.48,3.88-4.25,5.49-1.77,1.62-3.87,2.89-6.3,3.81-2.43.93-5.17,1.39-8.21,1.39Z" fill="#f8f9fa"/><path d="M655.28,48.78V.65h32.21v8.17h-22.36v11.63h20.68v8.04h-20.68v12.11h22.42v8.17h-32.27Z" fill="#f8f9fa"/><path d="M711.14,48.78V.65h15.12l7.82,22.1c.32,1.03.69,2.37,1.11,4.01.42,1.64.84,3.4,1.28,5.3.43,1.9.83,3.74,1.21,5.52.38,1.79.68,3.34.92,4.65h-1.91c.24-1.29.54-2.83.92-4.6s.78-3.61,1.21-5.51c.43-1.9.86-3.67,1.28-5.33.42-1.66.79-3,1.12-4.04l7.69-22.1h15.18v48.14h-9.92v-22.68c0-1.06.02-2.37.05-3.94.03-1.57.08-3.27.13-5.09.05-1.82.1-3.65.15-5.49.04-1.84.08-3.58.1-5.22h.61c-.41,1.79-.86,3.63-1.36,5.54-.5,1.91-1,3.75-1.5,5.54-.51,1.79-.99,3.43-1.44,4.93-.45,1.5-.84,2.74-1.16,3.73l-7.98,22.68h-8.3l-8.11-22.68c-.32-.99-.71-2.22-1.16-3.7-.45-1.48-.93-3.11-1.44-4.89-.51-1.79-1.02-3.63-1.54-5.54-.52-1.91-1-3.77-1.45-5.6h.74c.02,1.55.05,3.24.1,5.07.04,1.83.09,3.67.15,5.51.05,1.84.1,3.55.13,5.14s.05,2.92.05,4.02v22.68h-9.79Z" fill="#f8f9fa"/><path d="M770,48.78L786.44.65h12.92l16.86,48.14h-10.95l-7.72-23.23c-.93-2.99-1.87-6.27-2.83-9.84-.96-3.56-1.97-7.46-3.02-11.68h2.16c-1.03,4.24-2,8.16-2.89,11.74s-1.78,6.84-2.67,9.77l-7.43,23.23h-10.89ZM780.27,37.6v-7.72h25.68v7.72h-25.68Z" fill="#f8f9fa"/><path d="M840.43,49.43c-4.26,0-8.08-.97-11.45-2.91-3.37-1.94-6.03-4.75-7.98-8.43-1.95-3.68-2.92-8.13-2.92-13.34s.98-9.7,2.94-13.39c1.96-3.69,4.63-6.51,8.01-8.45s7.18-2.91,11.4-2.91c2.74,0,5.28.38,7.64,1.15,2.36.76,4.45,1.88,6.28,3.34,1.83,1.46,3.33,3.26,4.49,5.38,1.16,2.12,1.93,4.54,2.29,7.25h-9.98c-.22-1.33-.63-2.51-1.24-3.54-.61-1.02-1.38-1.9-2.29-2.62-.92-.72-1.97-1.27-3.15-1.65-1.18-.38-2.47-.57-3.84-.57-2.5,0-4.69.62-6.57,1.87s-3.35,3.06-4.39,5.44c-1.04,2.38-1.57,5.27-1.57,8.67s.53,6.39,1.58,8.75c1.05,2.37,2.52,4.16,4.39,5.36,1.87,1.21,4.05,1.81,6.53,1.81,1.38,0,2.65-.19,3.83-.57,1.17-.38,2.23-.93,3.17-1.65.94-.72,1.71-1.6,2.33-2.63.61-1.03,1.04-2.21,1.28-3.52h9.98c-.26,2.24-.92,4.38-1.99,6.43-1.07,2.05-2.48,3.88-4.25,5.49-1.77,1.62-3.87,2.89-6.3,3.81-2.43.93-5.17,1.39-8.21,1.39Z" fill="#f8f9fa"/><path d="M868.34,48.78V.65h9.85v19.45h20.97V.65h9.89v48.14h-9.89v-20.51h-20.97v20.51h-9.85Z" fill="#f8f9fa"/><path d="M927.62.65v48.14h-9.85V.65h9.85Z" fill="#f8f9fa"/><path d="M936.34,48.78V.65h10.98l15.22,24.36c.78,1.25,1.56,2.61,2.36,4.07.8,1.46,1.61,3.09,2.44,4.88.83,1.79,1.65,3.8,2.47,6.04h-1c-.15-1.79-.29-3.69-.4-5.72s-.22-3.96-.31-5.81c-.09-1.85-.13-3.42-.13-4.72V.65h10.08v48.14h-11.02l-13.83-22.1c-1.01-1.66-1.95-3.27-2.81-4.83-.86-1.56-1.76-3.28-2.7-5.17-.94-1.88-2.05-4.14-3.34-6.77h1.26c.13,2.33.26,4.56.39,6.69.13,2.13.23,4.07.31,5.8.08,1.73.11,3.15.11,4.25v22.13h-10.08Z" fill="#f8f9fa"/><path d="M986.77,48.78V.65h32.21v8.17h-22.36v11.63h20.68v8.04h-20.68v12.11h22.42v8.17h-32.27Z" fill="#f8f9fa"/><path d="M365.76,80.6v-3.94h26.39v3.94h-10.95v30.98h-4.45v-30.98h-10.99Z" fill="#f8f9fa"/><path d="M398.67,111.58v-34.92h21.28v3.94h-16.83v11.39h15.68v3.94h-15.68v11.72h17.04v3.94h-21.49Z" fill="#f8f9fa"/><path d="M441.65,112.05c-2.98,0-5.64-.72-7.98-2.17s-4.17-3.51-5.51-6.19-2-5.86-2-9.55.67-6.89,2-9.57,3.17-4.75,5.51-6.2,5-2.18,7.98-2.18c1.77,0,3.43.26,5,.77s2.98,1.27,4.23,2.26,2.29,2.2,3.13,3.61,1.41,3.02,1.72,4.82h-4.45c-.25-1.2-.68-2.26-1.28-3.16s-1.34-1.67-2.2-2.3-1.82-1.09-2.87-1.41-2.14-.47-3.28-.47c-2.09,0-3.98.53-5.67,1.59s-3.02,2.62-4.01,4.68-1.48,4.57-1.48,7.56.5,5.48,1.49,7.54,2.33,3.61,4.02,4.66,3.57,1.58,5.65,1.58c1.14,0,2.23-.16,3.28-.48s2-.79,2.87-1.41,1.6-1.38,2.2-2.3,1.03-1.96,1.28-3.15h4.45c-.3,1.78-.86,3.38-1.7,4.78s-1.88,2.61-3.13,3.61-2.66,1.76-4.23,2.29-3.25.79-5.03.79Z" fill="#f8f9fa"/><path d="M462.58,111.58v-34.92h4.45v15.09h18.33v-15.09h4.45v34.92h-4.45v-15.89h-18.33v15.89h-4.45Z" fill="#f8f9fa"/><path d="M498.25,111.58v-34.92h5.25l14.2,22.34c.38.58.83,1.32,1.36,2.23s1.11,1.93,1.72,3.07,1.22,2.36,1.82,3.66h-.63c-.14-1.34-.24-2.63-.3-3.86s-.1-2.36-.12-3.39-.02-1.91-.02-2.62v-21.42h4.45v34.92h-5.3l-12.66-19.88c-.58-.92-1.16-1.87-1.75-2.85s-1.25-2.13-2-3.47-1.68-2.99-2.79-4.96h.82c.08,1.73.15,3.34.21,4.8s.11,2.75.15,3.84.06,1.95.06,2.58v19.92h-4.48Z" fill="#f8f9fa"/><path d="M548.57,112.05c-2.98,0-5.64-.72-7.98-2.17s-4.18-3.51-5.52-6.19-2.02-5.86-2.02-9.55.67-6.89,2.02-9.57,3.18-4.75,5.52-6.2,5-2.18,7.98-2.18,5.64.73,7.97,2.18,4.16,3.52,5.5,6.2,2,5.87,2,9.57-.67,6.87-2,9.55-3.17,4.74-5.5,6.19-4.98,2.17-7.97,2.17ZM548.57,107.93c2.08,0,3.96-.53,5.64-1.58s3.02-2.61,4.01-4.66,1.49-4.57,1.49-7.54-.5-5.53-1.49-7.58-2.33-3.61-4.01-4.66-3.56-1.58-5.64-1.58-3.98.53-5.67,1.59-3.03,2.62-4.02,4.68-1.49,4.57-1.49,7.56.5,5.48,1.49,7.52,2.33,3.6,4.02,4.66,3.58,1.59,5.67,1.59Z" fill="#f8f9fa"/><path d="M571.12,111.58v-34.92h4.45v30.98h16.17v3.94h-20.62Z" fill="#f8f9fa"/><path d="M611.06,112.05c-2.98,0-5.64-.72-7.98-2.17s-4.18-3.51-5.52-6.19-2.02-5.86-2.02-9.55.67-6.89,2.02-9.57,3.18-4.75,5.52-6.2,5-2.18,7.98-2.18,5.64.73,7.97,2.18,4.16,3.52,5.5,6.2,2,5.87,2,9.57-.67,6.87-2,9.55-3.17,4.74-5.5,6.19-4.98,2.17-7.97,2.17ZM611.06,107.93c2.08,0,3.96-.53,5.64-1.58s3.02-2.61,4.01-4.66,1.49-4.57,1.49-7.54-.5-5.53-1.49-7.58-2.33-3.61-4.01-4.66-3.56-1.58-5.64-1.58-3.98.53-5.67,1.59-3.03,2.62-4.02,4.68-1.49,4.57-1.49,7.56.5,5.48,1.49,7.52,2.33,3.6,4.02,4.66,3.58,1.59,5.67,1.59Z" fill="#f8f9fa"/><path d="M647.88,112.05c-3.11,0-5.84-.73-8.18-2.18s-4.17-3.52-5.48-6.2-1.97-5.86-1.97-9.53.66-6.89,1.97-9.57,3.12-4.75,5.44-6.2,4.96-2.18,7.95-2.18c1.84,0,3.57.27,5.17.82s3.04,1.33,4.3,2.34,2.32,2.22,3.15,3.62,1.41,2.94,1.72,4.63h-4.59c-.36-1.12-.84-2.13-1.43-3.02s-1.3-1.66-2.12-2.3-1.75-1.13-2.78-1.46-2.16-.5-3.4-.5c-2.05,0-3.91.53-5.58,1.58s-3,2.61-3.98,4.66-1.48,4.58-1.48,7.58.5,5.48,1.49,7.52,2.34,3.6,4.04,4.66,3.62,1.59,5.77,1.59c1.97,0,3.7-.42,5.2-1.25s2.67-2.02,3.5-3.56,1.25-3.36,1.25-5.45l1.34.26h-10.38v-3.89h13.41v3.82c0,2.89-.62,5.4-1.85,7.52s-2.93,3.77-5.07,4.93-4.61,1.75-7.39,1.75Z" fill="#f8f9fa"/><path d="M673.87,76.66v34.92h-4.45v-34.92h4.45Z" fill="#f8f9fa"/><path d="M682.31,111.58v-34.92h21.28v3.94h-16.83v11.39h15.68v3.94h-15.68v11.72h17.04v3.94h-21.49Z" fill="#f8f9fa"/><path d="M722.34,112.19c-2.52,0-4.7-.41-6.55-1.22s-3.3-1.95-4.35-3.41-1.64-3.17-1.78-5.12h4.57c.12,1.31.57,2.39,1.34,3.25s1.75,1.48,2.94,1.9,2.47.62,3.83.62c1.58,0,3-.26,4.25-.77s2.25-1.24,2.99-2.18,1.1-2.02,1.1-3.26c0-1.12-.32-2.04-.95-2.74s-1.47-1.28-2.52-1.73-2.2-.85-3.45-1.2l-4.22-1.2c-2.81-.8-5-1.94-6.56-3.42s-2.34-3.38-2.34-5.7c0-1.97.53-3.69,1.59-5.17s2.5-2.62,4.31-3.43,3.84-1.22,6.09-1.22,4.33.41,6.09,1.22,3.16,1.92,4.18,3.32,1.57,2.98,1.63,4.75h-4.36c-.2-1.7-1.02-3.02-2.44-3.95s-3.17-1.39-5.25-1.39c-1.5,0-2.82.25-3.95.74s-2.01,1.16-2.64,2.02-.94,1.82-.94,2.92c0,1.22.38,2.2,1.14,2.94s1.66,1.32,2.7,1.73,1.98.74,2.82.97l3.49.96c.94.25,1.97.59,3.11,1.03s2.21,1.02,3.25,1.75,1.88,1.65,2.54,2.77,1,2.49,1,4.11c0,1.91-.5,3.62-1.49,5.16s-2.43,2.74-4.32,3.63-4.18,1.34-6.87,1.34Z" fill="#f8f9fa"/><g id="b"><path d="M237.37,0h-34.8l-32.96,55.39L135.75,0h-34.79v29.3l5.84,10V5.84h25.67l37.2,60.85L205.89,5.84h19.67s.02,0,.03,0h11.8l-.02-5.84Z" fill="#f8f9fa"/><path d="M232.13,28.53l-.29,80.55h-27.67l-.36-57.32-28.2,47.5h-12.91l-28.23-45.51v55.32h0s0,5.79,0,5.84h5.85v-40.66l19.14,30.84h19.49l19.17-32.28.24,39.19.02,2.9h39.34l.17-86.39h-5.74Z" fill="#f8f9fa"/><polygon points="134.46 101.54 134.46 109.07 131.43 109.08 99.9 109.08 92.58 90.08 47.15 90.08 39.83 109.08 8.93 109.08 54.03 5.92 86.34 5.92 106.8 52.72 106.8 38.18 90.16 .07 50.21 .07 0 114.93 43.84 114.93 51.16 95.93 88.58 95.93 95.9 114.93 140.3 114.92 134.46 101.54" fill="#e82a2a"/><path d="M55.02,69.45h29.7l-1.54-3.97-13.31-34.46-14.85,38.43ZM69.87,47.23l6.33,16.39h-12.66l6.33-16.39Z" fill="#e82a2a"/><polygon points="232.37 .01 232.26 5.82 235 5.85 242.65 5.82 332.41 5.85 332.41 28.53 300.47 28.53 300.47 109.09 269.54 109.09 269.54 28.53 237.72 28.53 237.72 34.37 263.7 34.37 263.7 114.93 306.31 114.93 306.31 34.37 338.25 34.37 338.25 .01 232.37 .01" fill="#f8f9fa"/></g></svg>